<?xml version="1.0" encoding="UTF-8"?>
<svg width="24px" height="24px" viewBox="0 0 24 24" version="1.1" xmlns="http://www.w3.org/2000/svg" xmlns:xlink="http://www.w3.org/1999/xlink">
    <!-- Generator: Sketch 43.1 (39012) - http://www.bohemiancoding.com/sketch -->
    <title>close</title>
    <desc>Created with Sketch.</desc>
    <defs></defs>
    <g id="Page-1" stroke="none" stroke-width="1" fill="none" fill-rule="evenodd">
        <g id="log-in/register-2" transform="translate(-1084.000000, -186.000000)" fill="#CFCFCF">
            <g id="Group-4" transform="translate(233.000000, 161.000000)">
                <path d="M861.066926,37 L851.401166,46.6657599 C850.8664,47.2005261 850.866594,48.0657983 851.400398,48.599602 C851.937923,49.1371274 852.800012,49.133062 853.33424,48.5988343 L863,38.9330744 L872.66576,48.5988343 C873.199988,49.133062 874.062077,49.1371274 874.599602,48.599602 C875.133406,48.0657983 875.1336,47.2005261 874.598834,46.6657599 L864.933074,37 L874.598834,27.3342401 C875.1336,26.7994739 875.133406,25.9342017 874.599602,25.400398 C874.062077,24.8628726 873.199988,24.866938 872.66576,25.4011657 L863,35.0669256 L853.33424,25.4011657 C852.800012,24.866938 851.937923,24.8628726 851.400398,25.400398 C850.866594,25.9342017 850.8664,26.7994739 851.401166,27.3342401 L861.066926,37 Z" id="close"></path>
            </g>
        </g>
    </g>
</svg>