<?xml version="1.0" encoding="UTF-8"?>
<svg width="11px" height="15px" viewBox="0 0 11 15" version="1.1" xmlns="http://www.w3.org/2000/svg" xmlns:xlink="http://www.w3.org/1999/xlink">
    <!-- Generator: Sketch 43.1 (39012) - http://www.bohemiancoding.com/sketch -->
    <title>google</title>
    <desc>Created with Sketch.</desc>
    <defs></defs>
    <g id="Page-1" stroke="none" stroke-width="1" fill="none" fill-rule="evenodd">
        <g id="google" fill-rule="nonzero" fill="#FFFFFF">
            <path d="M8.25806452,8.5 C8.25806452,8.5 7.22580645,7.925 7.22580645,7.5 C7.22580645,7.5 6.96825806,6.586 7.74193548,6 C8.53522581,5.4 9.29032258,4.4825 9.29032258,3.5 C9.29032258,2.332 8.75045161,1 7.74193548,0.5 L9.29032258,0.5 L10.5223226,0 L5.67741935,0 C3.52774194,0 1.5483871,1.6725 1.5483871,3.5 C1.5483871,5.3675 3.01883871,6.78 5.20567742,6.78 C5.35793548,6.78 5.50554839,6.777 5.65006452,6.7675 C5.50864516,7.0305 5.40645161,7.327 5.40645161,7.635 C5.40645161,8.1535 5.82864516,8.656 6.19303226,9 L5.16077419,9 C2.49806452,9 0.515612903,10.2965 0.515612903,12 C0.515612903,13.6775 3.03019355,15 5.69290323,15 C8.72877419,15 10.8387097,13.5 10.8387097,11.5 C10.8387097,10.1555 9.52516129,9.368 8.25806452,8.5 Z M6.19354839,6.5 C4.95741935,6.5 3.30993548,5.0715 3.09677419,3.5 C2.8836129,1.928 3.92619355,0.4645 5.16129032,0.5 C6.39690323,0.5355 7.53703226,1.954 7.75070968,3.526 C7.96335484,5.0975 7.22580645,6.5 6.19354839,6.5 Z M5.67741935,14 C3.83690323,14 2.06451613,13.3555 2.06451613,12 C2.06451613,10.671 3.83690323,9.481 5.67741935,9.5 C6.10683871,9.5045 6.70967742,9.5 6.70967742,9.5 C7.22580645,9.5 8.19612903,9.9405 8.77419355,10.5 C9.29032258,11 9.29032258,11.837 9.29032258,12 C9.29032258,13.5 8.26529032,14 5.67741935,14 Z" id="g"></path>
        </g>
    </g>
</svg>