<?xml version="1.0" encoding="UTF-8"?>
<svg width="15px" height="18px" viewBox="0 0 15 18" version="1.1" xmlns="http://www.w3.org/2000/svg" xmlns:xlink="http://www.w3.org/1999/xlink">
    <!-- Generator: Sketch 43.1 (39012) - http://www.bohemiancoding.com/sketch -->
    <title>Shape</title>
    <desc>Created with Sketch.</desc>
    <defs></defs>
    <g id="Page-1" stroke="none" stroke-width="1" fill="none" fill-rule="evenodd">
        <g id="log-in/register-2" transform="translate(-316.000000, -333.000000)" stroke="#89898C">
            <g id="Group-4" transform="translate(233.000000, 158.000000)">
                <g id="Group-8" transform="translate(61.000000, 97.000000)">
                    <g id="Group-6">
                        <g id="Group-Copy-5" transform="translate(0.000000, 65.000000)">
                            <path d="M26.4837662,21.237013 L32.3019481,21.237013 L32.3019481,19.0551948 C32.3019481,18.2521605 32.01786,17.5665613 31.4496753,16.9983766 C30.8814907,16.430192 30.1958915,16.1461039 29.3928571,16.1461039 C28.5898228,16.1461039 27.9042236,16.430192 27.336039,16.9983766 C26.7678543,17.5665613 26.4837662,18.2521605 26.4837662,19.0551948 L26.4837662,21.237013 Z M35.9383117,22.3279221 L35.9383117,28.8733766 C35.9383117,29.1764084 35.8322521,29.4339816 35.6201299,29.6461039 C35.4080076,29.8582262 35.1504344,29.9642857 34.8474026,29.9642857 L23.9383117,29.9642857 C23.6352799,29.9642857 23.3777067,29.8582262 23.1655844,29.6461039 C22.9534621,29.4339816 22.8474026,29.1764084 22.8474026,28.8733766 L22.8474026,22.3279221 C22.8474026,22.0248903 22.9534621,21.7673171 23.1655844,21.5551948 C23.3777067,21.3430725 23.6352799,21.237013 23.9383117,21.237013 L24.3019481,21.237013 L24.3019481,19.0551948 C24.3019481,17.6612484 24.8019431,16.4642907 25.8019481,15.4642857 C26.8019531,14.4642807 27.9989108,13.9642857 29.3928571,13.9642857 C30.7868035,13.9642857 31.9837612,14.4642807 32.9837662,15.4642857 C33.9837712,16.4642907 34.4837662,17.6612484 34.4837662,19.0551948 L34.4837662,21.237013 L34.8474026,21.237013 C35.1504344,21.237013 35.4080076,21.3430725 35.6201299,21.5551948 C35.8322521,21.7673171 35.9383117,22.0248903 35.9383117,22.3279221 L35.9383117,22.3279221 Z" id="Shape"></path>
                        </g>
                    </g>
                </g>
            </g>
        </g>
    </g>
</svg>