<?xml version="1.0" encoding="UTF-8"?>
<svg width="23px" height="19px" viewBox="0 0 23 19" version="1.1" xmlns="http://www.w3.org/2000/svg" xmlns:xlink="http://www.w3.org/1999/xlink">
    <!-- Generator: Sketch 43.1 (39012) - http://www.bohemiancoding.com/sketch -->
    <title>twiiter</title>
    <desc>Created with Sketch.</desc>
    <defs></defs>
    <g id="Page-1" stroke="none" stroke-width="1" fill="none" fill-rule="evenodd">
        <g id="log-in/register-2" transform="translate(-310.000000, -529.000000)" fill="#FFFFFF">
            <g id="Group-4" transform="translate(233.000000, 158.000000)">
                <g id="Group-8" transform="translate(61.000000, 97.000000)">
                    <g id="Group-6">
                        <g id="Group-5" transform="translate(3.000000, 216.000000)">
                            <g id="twitter" transform="translate(1.000000, 44.000000)">
                                <g id="Group-4" transform="translate(12.000000, 13.000000)">
                                    <path d="M22.8008929,3.15446429 C22.1677796,4.08051058 21.4023854,4.86952799 20.5046875,5.52154018 C20.514137,5.65383251 20.5188616,5.85226802 20.5188616,6.11685268 C20.5188616,7.34528144 20.3393247,8.57132945 19.9802455,9.79503348 C19.6211664,11.0187375 19.0754687,12.1928143 18.3431362,13.3172991 C17.6108036,14.4417839 16.7391048,15.4363238 15.7280134,16.3009487 C14.716922,17.1655735 13.497961,17.8553732 12.0710937,18.3703683 C10.6442265,18.8853634 9.11816289,19.1428571 7.49285714,19.1428571 C4.93205565,19.1428571 2.5886267,18.4577821 0.4625,17.0876116 C0.79323082,17.1254094 1.16175392,17.144308 1.56808036,17.144308 C3.69420706,17.144308 5.58879377,16.4923056 7.25189732,15.1882812 C6.25970486,15.1693823 5.3714697,14.8646421 4.58716518,14.2740513 C3.80286066,13.6834606 3.26424998,12.9298781 2.97131696,12.0132812 C3.28314888,12.0605285 3.57135284,12.0841518 3.8359375,12.0841518 C4.24226394,12.0841518 4.64385962,12.0321806 5.04073661,11.9282366 C3.98239798,11.7108992 3.10597445,11.1841002 2.41143973,10.3478237 C1.71690501,9.51154716 1.36964286,8.54063053 1.36964286,7.43504464 L1.36964286,7.37834821 C2.01220559,7.73742739 2.70200524,7.93113825 3.4390625,7.95948661 C2.81539867,7.54371072 2.31930988,7.00037538 1.95078125,6.32946429 C1.58225262,5.65855319 1.39799107,4.9309563 1.39799107,4.14665179 C1.39799107,3.31510001 1.6058759,2.54498122 2.02165179,1.83627232 C3.16503548,3.24424067 4.55644642,4.37107092 6.19592634,5.21679687 C7.83540626,6.06252283 9.59061565,6.53262602 11.4616071,6.62712054 C11.3860115,6.26804136 11.3482143,5.91841688 11.3482143,5.57823661 C11.3482143,4.31201004 11.7946942,3.23242634 12.6876674,2.33945312 C13.5806406,1.44647991 14.6602243,1 15.9264509,1 C17.2493742,1 18.3643928,1.48191482 19.2715402,2.44575893 C20.3015304,2.24732044 21.2700847,1.87879734 22.1772321,1.34017857 C21.8276024,2.42686555 21.1567014,3.26785417 20.1645089,3.86316964 C21.043308,3.76867512 21.9220938,3.53244237 22.8008929,3.15446429 L22.8008929,3.15446429 Z" id="twiiter"></path>
                                </g>
                            </g>
                        </g>
                    </g>
                </g>
            </g>
        </g>
    </g>
</svg>