<?xml version="1.0" encoding="UTF-8"?>
<svg width="15px" height="17px" viewBox="0 0 15 17" version="1.1" xmlns="http://www.w3.org/2000/svg" xmlns:xlink="http://www.w3.org/1999/xlink">
    <!-- Generator: Sketch 43.1 (39012) - http://www.bohemiancoding.com/sketch -->
    <title>Shape</title>
    <desc>Created with Sketch.</desc>
    <defs></defs>
    <g id="Page-1" stroke="none" stroke-width="1" fill="none" fill-rule="evenodd">
        <g id="log-in/register-2" transform="translate(-734.000000, -337.000000)" stroke="#89898C">
            <g id="Group-4" transform="translate(233.000000, 161.000000)">
                <g id="Group-8" transform="translate(61.000000, 97.000000)">
                    <g id="Group-7" transform="translate(418.000000, 0.000000)">
                        <g id="Group-Copy" transform="translate(0.000000, 65.000000)">
                            <path d="M35.6428571,27.6841518 C35.6428571,28.356952 35.449273,28.8594753 35.0648326,29.2254837 C34.6740756,29.5975057 34.1487164,29.7857143 33.4609375,29.7857143 L24.6819196,29.7857143 C23.9941408,29.7857143 23.4687815,29.5975057 23.0780246,29.2254837 C22.6935842,28.8594753 22.5,28.356952 22.5,27.6841518 C22.5,27.3406438 22.5113289,27.0056317 22.5339597,26.6791018 C22.556094,26.3597354 22.6006795,26.0126051 22.6679169,25.6379972 C22.7344515,25.2673041 22.8179668,24.9253642 22.9181764,24.6122093 C23.0146787,24.3106396 23.1446729,24.0158852 23.3085675,23.7275521 C23.4660949,23.4504205 23.6441615,23.2177852 23.8423803,23.0280615 C24.0286411,22.8497833 24.2598126,22.7051321 24.5395759,22.5943348 C24.8173012,22.4843445 25.1282363,22.4285714 25.4754464,22.4285714 C25.3940923,22.4285714 25.5025753,22.4841044 25.6243812,22.5634628 C25.8467207,22.7083204 26.0974265,22.8698489 26.3765528,23.0480862 C26.6940276,23.250811 27.0935665,23.4283839 27.5766539,23.58457 C28.0711367,23.7444404 28.5699694,23.8247768 29.0714286,23.8247768 C29.5728877,23.8247768 30.0717204,23.7444404 30.5662033,23.58457 C31.0492907,23.4283839 31.4488296,23.250811 31.7663043,23.0480862 C32.0454306,22.8698489 32.2961364,22.7083204 32.518476,22.5634628 C32.6402818,22.4841044 32.7487648,22.4285714 32.6674107,22.4285714 C33.0146209,22.4285714 33.3255559,22.4843445 33.6032813,22.5943348 C33.8830446,22.7051321 34.114216,22.8497833 34.3004769,23.0280615 C34.4986957,23.2177852 34.6767622,23.4504205 34.8342896,23.7275521 C34.9981842,24.0158852 35.1281785,24.3106396 35.2246808,24.6122093 C35.3248904,24.9253642 35.4084056,25.2673041 35.4749403,25.6379972 C35.5421776,26.0126051 35.5867631,26.3597354 35.6088974,26.6791018 C35.6315282,27.0056317 35.6428571,27.3406438 35.6428571,27.6841518 Z M32.4285714,18.7142857 C32.4285714,19.6463917 32.1045959,20.4282527 31.4449957,21.0878529 C30.7853955,21.747453 30.0035346,22.0714286 29.0714286,22.0714286 C28.1393225,22.0714286 27.3574616,21.747453 26.6978614,21.0878529 C26.0382612,20.4282527 25.7142857,19.6463917 25.7142857,18.7142857 C25.7142857,17.7821797 26.0382612,17.0003188 26.6978614,16.3407186 C27.3574616,15.6811184 28.1393225,15.3571429 29.0714286,15.3571429 C30.0035346,15.3571429 30.7853955,15.6811184 31.4449957,16.3407186 C32.1045959,17.0003188 32.4285714,17.7821797 32.4285714,18.7142857 Z" id="Shape"></path>
                        </g>
                    </g>
                </g>
            </g>
        </g>
    </g>
</svg>